<svg width="39" height="50" viewBox="0 0 39 50" fill="none" xmlns="http://www.w3.org/2000/svg">
<rect x="0.5" y="8.5" width="38" height="34" rx="4.5" fill="black" stroke="black"/>
<path d="M11.25 28.0977C10.8398 28.0977 10.472 28.0326 10.1465 27.9023C9.82096 27.7689 9.54427 27.585 9.31641 27.3506C9.0918 27.1162 8.91927 26.8444 8.79883 26.5352C8.67839 26.2227 8.61816 25.8906 8.61816 25.5391V25.3438C8.61816 24.9434 8.67513 24.5771 8.78906 24.2451C8.90299 23.9131 9.06576 23.625 9.27734 23.3809C9.49219 23.1367 9.7526 22.9495 10.0586 22.8193C10.3646 22.6859 10.7096 22.6191 11.0938 22.6191C11.4681 22.6191 11.8001 22.681 12.0898 22.8047C12.3796 22.9284 12.6221 23.1042 12.8174 23.332C13.016 23.5599 13.1657 23.8333 13.2666 24.1523C13.3675 24.4681 13.418 24.8197 13.418 25.207V25.793H9.21875V24.8555H12.0361V24.748C12.0361 24.5527 12.0003 24.3786 11.9287 24.2256C11.8604 24.0693 11.7562 23.9456 11.6162 23.8545C11.4762 23.7633 11.2972 23.7178 11.0791 23.7178C10.8936 23.7178 10.734 23.7585 10.6006 23.8398C10.4671 23.9212 10.3581 24.0352 10.2734 24.1816C10.1921 24.3281 10.1302 24.5007 10.0879 24.6992C10.0488 24.8945 10.0293 25.1094 10.0293 25.3438V25.5391C10.0293 25.7507 10.0586 25.946 10.1172 26.125C10.179 26.304 10.2653 26.4587 10.376 26.5889C10.4899 26.7191 10.6266 26.82 10.7861 26.8916C10.9489 26.9632 11.1328 26.999 11.3379 26.999C11.5918 26.999 11.8278 26.9502 12.0459 26.8525C12.2673 26.7516 12.4577 26.6003 12.6172 26.3984L13.3008 27.1406C13.1901 27.3001 13.0387 27.4531 12.8467 27.5996C12.6579 27.7461 12.43 27.8665 12.1631 27.9609C11.8962 28.0521 11.5918 28.0977 11.25 28.0977ZM15.5957 23.8447V28H14.1895V22.7168H15.5078L15.5957 23.8447ZM15.3906 25.1729H15.0098C15.0098 24.7822 15.0602 24.4307 15.1611 24.1182C15.262 23.8024 15.4036 23.5339 15.5859 23.3125C15.7682 23.0879 15.9847 22.917 16.2354 22.7998C16.4893 22.6794 16.7725 22.6191 17.085 22.6191C17.3324 22.6191 17.5586 22.6549 17.7637 22.7266C17.9688 22.7982 18.1445 22.9121 18.291 23.0684C18.4408 23.2246 18.5547 23.4313 18.6328 23.6885C18.7142 23.9456 18.7549 24.2598 18.7549 24.6309V28H17.3389V24.626C17.3389 24.3916 17.3063 24.2093 17.2412 24.0791C17.1761 23.9489 17.0801 23.8577 16.9531 23.8057C16.8294 23.7503 16.6764 23.7227 16.4941 23.7227C16.3053 23.7227 16.141 23.7601 16.001 23.835C15.8643 23.9098 15.7503 24.014 15.6592 24.1475C15.5713 24.2777 15.5046 24.4307 15.459 24.6064C15.4134 24.7822 15.3906 24.971 15.3906 25.1729ZM22.4121 22.7168V23.7129H19.3359V22.7168H22.4121ZM20.0977 21.4131H21.5039V26.4082C21.5039 26.5612 21.5234 26.6784 21.5625 26.7598C21.6048 26.8411 21.6667 26.8981 21.748 26.9307C21.8294 26.96 21.932 26.9746 22.0557 26.9746C22.1436 26.9746 22.2217 26.9714 22.29 26.9648C22.3617 26.9551 22.4219 26.9453 22.4707 26.9355L22.4756 27.9707C22.3551 28.0098 22.2249 28.0407 22.085 28.0635C21.945 28.0863 21.7904 28.0977 21.6211 28.0977C21.3118 28.0977 21.0417 28.0472 20.8105 27.9463C20.5827 27.8421 20.4069 27.6761 20.2832 27.4482C20.1595 27.2204 20.0977 26.9209 20.0977 26.5498V21.4131ZM25.6445 28.0977C25.2344 28.0977 24.8665 28.0326 24.541 27.9023C24.2155 27.7689 23.9388 27.585 23.7109 27.3506C23.4863 27.1162 23.3138 26.8444 23.1934 26.5352C23.0729 26.2227 23.0127 25.8906 23.0127 25.5391V25.3438C23.0127 24.9434 23.0697 24.5771 23.1836 24.2451C23.2975 23.9131 23.4603 23.625 23.6719 23.3809C23.8867 23.1367 24.1471 22.9495 24.4531 22.8193C24.7591 22.6859 25.1042 22.6191 25.4883 22.6191C25.8626 22.6191 26.1947 22.681 26.4844 22.8047C26.7741 22.9284 27.0166 23.1042 27.2119 23.332C27.4105 23.5599 27.5602 23.8333 27.6611 24.1523C27.762 24.4681 27.8125 24.8197 27.8125 25.207V25.793H23.6133V24.8555H26.4307V24.748C26.4307 24.5527 26.3949 24.3786 26.3232 24.2256C26.2549 24.0693 26.1507 23.9456 26.0107 23.8545C25.8708 23.7633 25.6917 23.7178 25.4736 23.7178C25.2881 23.7178 25.1286 23.7585 24.9951 23.8398C24.8617 23.9212 24.7526 24.0352 24.668 24.1816C24.5866 24.3281 24.5247 24.5007 24.4824 24.6992C24.4434 24.8945 24.4238 25.1094 24.4238 25.3438V25.5391C24.4238 25.7507 24.4531 25.946 24.5117 26.125C24.5736 26.304 24.6598 26.4587 24.7705 26.5889C24.8844 26.7191 25.0212 26.82 25.1807 26.8916C25.3434 26.9632 25.5273 26.999 25.7324 26.999C25.9863 26.999 26.2223 26.9502 26.4404 26.8525C26.6618 26.7516 26.8522 26.6003 27.0117 26.3984L27.6953 27.1406C27.5846 27.3001 27.4333 27.4531 27.2412 27.5996C27.0524 27.7461 26.8245 27.8665 26.5576 27.9609C26.2907 28.0521 25.9863 28.0977 25.6445 28.0977ZM30.0195 23.8691V28H28.6133V22.7168H29.9365L30.0195 23.8691ZM31.6113 22.6826L31.5869 23.9863C31.5186 23.9766 31.4355 23.9684 31.3379 23.9619C31.2435 23.9521 31.1572 23.9473 31.0791 23.9473C30.8805 23.9473 30.708 23.9733 30.5615 24.0254C30.4183 24.0742 30.2979 24.1475 30.2002 24.2451C30.1058 24.3428 30.0342 24.4616 29.9854 24.6016C29.9398 24.7415 29.9137 24.901 29.9072 25.0801L29.624 24.9922C29.624 24.6504 29.6582 24.3363 29.7266 24.0498C29.7949 23.7601 29.8942 23.5078 30.0244 23.293C30.1579 23.0781 30.3206 22.9121 30.5127 22.7949C30.7048 22.6777 30.9245 22.6191 31.1719 22.6191C31.25 22.6191 31.3298 22.6257 31.4111 22.6387C31.4925 22.6484 31.5592 22.6631 31.6113 22.6826Z" fill="white"/>
</svg>
