<svg width="37" height="37" viewBox="0 0 37 37" fill="none" xmlns="http://www.w3.org/2000/svg">
<mask id="mask0_14_179" style="mask-type:alpha" maskUnits="userSpaceOnUse" x="0" y="0" width="37" height="37">
<rect width="37" height="37" fill="#D9D9D9"/>
</mask>
<g mask="url(#mask0_14_179)">
<path d="M9.80137 19.6562L14.9245 24.7794C15.138 24.9928 15.2472 25.2611 15.2521 25.5843C15.2571 25.9074 15.1479 26.1806 14.9245 26.404C14.7012 26.6273 14.4304 26.739 14.1122 26.739C13.794 26.739 13.5232 26.6273 13.2999 26.404L6.37128 19.4754C6.227 19.3311 6.12522 19.1789 6.06591 19.0188C6.00661 18.8587 5.97696 18.6858 5.97696 18.5C5.97696 18.3142 6.00661 18.1413 6.06591 17.9812C6.12522 17.8211 6.227 17.6689 6.37128 17.5246L13.2999 10.596C13.5133 10.3826 13.7816 10.2734 14.1048 10.2684C14.4279 10.2635 14.7012 10.3727 14.9245 10.596C15.1479 10.8194 15.2595 11.0901 15.2595 11.4083C15.2595 11.7265 15.1479 11.9973 14.9245 12.2206L9.80137 17.3438H28.8173C28.9556 17.3438 29.0693 17.2993 29.1582 17.2104C29.2472 17.1214 29.2917 17.0077 29.2917 16.8694V12.3333C29.2917 12.0052 29.4023 11.7305 29.6237 11.5092C29.8451 11.2878 30.1198 11.1771 30.4479 11.1771C30.776 11.1771 31.0507 11.2878 31.272 11.5092C31.4934 11.7305 31.6041 12.0052 31.6041 12.3333V16.8694C31.6041 17.6382 31.3319 18.2949 30.7873 18.8394C30.2428 19.384 29.5861 19.6562 28.8173 19.6562H9.80137Z" fill="#1C1B1F"/>
</g>
</svg>
