<svg width="37" height="37" viewBox="0 0 37 37" fill="none" xmlns="http://www.w3.org/2000/svg">
<mask id="mask0_14_185" style="mask-type:alpha" maskUnits="userSpaceOnUse" x="0" y="0" width="37" height="37">
<rect width="37" height="37" fill="#D9D9D9"/>
</mask>
<g mask="url(#mask0_14_185)">
<path d="M9.7244 33.1458C8.95555 33.1458 8.29886 32.8735 7.75434 32.329C7.2098 31.7845 6.93753 31.1278 6.93753 30.3589V15.8911C6.93753 15.1222 7.2098 14.4655 7.75434 13.921C8.29886 13.3765 8.95555 13.1042 9.7244 13.1042H11.5625V10.0209C11.5625 8.09579 12.2375 6.45829 13.5874 5.10835C14.9374 3.75842 16.5749 3.08345 18.5 3.08345C20.4251 3.08345 22.0626 3.75842 23.4126 5.10835C24.7625 6.45829 25.4375 8.09579 25.4375 10.0209V13.1042H27.2756C28.0444 13.1042 28.7011 13.3765 29.2456 13.921C29.7902 14.4655 30.0625 15.1222 30.0625 15.8911V30.3589C30.0625 31.1278 29.7902 31.7845 29.2456 32.329C28.7011 32.8735 28.0444 33.1458 27.2756 33.1458H9.7244ZM9.7244 30.8333H27.2756C27.4139 30.8333 27.5276 30.7889 27.6166 30.6999C27.7055 30.6109 27.75 30.4973 27.75 30.3589V15.8911C27.75 15.7527 27.7055 15.6391 27.6166 15.5501C27.5276 15.4611 27.4139 15.4167 27.2756 15.4167H9.7244C9.58604 15.4167 9.47238 15.4611 9.38342 15.5501C9.29447 15.6391 9.24999 15.7527 9.24999 15.8911V30.3589C9.24999 30.4973 9.29447 30.6109 9.38342 30.6999C9.47238 30.7889 9.58604 30.8333 9.7244 30.8333ZM18.5 25.8229C19.2491 25.8229 19.886 25.5605 20.4107 25.0357C20.9355 24.511 21.1979 23.8741 21.1979 23.125C21.1979 22.3759 20.9355 21.739 20.4107 21.2143C19.886 20.6895 19.2491 20.4271 18.5 20.4271C17.7509 20.4271 17.114 20.6895 16.5893 21.2143C16.0645 21.739 15.8021 22.3759 15.8021 23.125C15.8021 23.8741 16.0645 24.511 16.5893 25.0357C17.114 25.5605 17.7509 25.8229 18.5 25.8229ZM13.875 13.1042H23.125V10.0209C23.125 8.73615 22.6753 7.64414 21.776 6.74483C20.8767 5.84553 19.7847 5.39587 18.5 5.39587C17.2153 5.39587 16.1233 5.84553 15.224 6.74483C14.3246 7.64414 13.875 8.73615 13.875 10.0209V13.1042Z" fill="#1C1B1F"/>
</g>
</svg>
