<svg width="37" height="37" viewBox="0 0 37 37" fill="none" xmlns="http://www.w3.org/2000/svg">
<mask id="mask0_14_167" style="mask-type:alpha" maskUnits="userSpaceOnUse" x="0" y="0" width="37" height="37">
<rect width="37" height="37" fill="#D9D9D9"/>
</mask>
<g mask="url(#mask0_14_167)">
<path d="M16.6411 23.6882L23.3562 19.3746C23.6863 19.165 23.8513 18.874 23.8513 18.5015C23.8513 18.1289 23.6863 17.8369 23.3562 17.6254L16.6411 13.3118C16.2953 13.0746 15.9405 13.0556 15.5768 13.2548C15.2131 13.454 15.0313 13.7645 15.0313 14.1863V22.8137C15.0313 23.2355 15.2131 23.546 15.5768 23.7452C15.9405 23.9444 16.2953 23.9254 16.6411 23.6882ZM18.5026 33.1458C16.4769 33.1458 14.5729 32.7614 12.7906 31.9926C11.0082 31.2239 9.45774 30.1805 8.13928 28.8627C6.8208 27.5448 5.777 25.995 5.00789 24.2134C4.23877 22.4318 3.85422 20.5282 3.85422 18.5026C3.85422 16.4769 4.23861 14.5729 5.00738 12.7906C5.77616 11.0082 6.81949 9.45773 8.13735 8.13927C9.45525 6.82078 11.005 5.77698 12.7866 5.00787C14.5682 4.23876 16.4718 3.8542 18.4974 3.8542C20.5231 3.8542 22.4271 4.23859 24.2095 5.00737C25.9919 5.77615 27.5423 6.81947 28.8607 8.13734C30.1792 9.45523 31.223 11.005 31.9921 12.7866C32.7613 14.5682 33.1458 16.4718 33.1458 18.4974C33.1458 20.5231 32.7614 22.4271 31.9926 24.2094C31.2239 25.9918 30.1805 27.5423 28.8627 28.8607C27.5448 30.1792 25.995 31.223 24.2134 31.9921C22.4319 32.7612 20.5282 33.1458 18.5026 33.1458ZM18.5 30.8333C21.9431 30.8333 24.8594 29.6385 27.249 27.249C29.6386 24.8594 30.8334 21.9431 30.8334 18.5C30.8334 15.0569 29.6386 12.1406 27.249 9.75104C24.8594 7.36146 21.9431 6.16666 18.5 6.16666C15.057 6.16666 12.1406 7.36146 9.75105 9.75104C7.36147 12.1406 6.16668 15.0569 6.16668 18.5C6.16668 21.9431 7.36147 24.8594 9.75105 27.249C12.1406 29.6385 15.057 30.8333 18.5 30.8333Z" fill="#1C1B1F"/>
</g>
</svg>
