<svg width="37" height="37" viewBox="0 0 37 37" fill="none" xmlns="http://www.w3.org/2000/svg">
<mask id="mask0_14_173" style="mask-type:alpha" maskUnits="userSpaceOnUse" x="0" y="0" width="37" height="37">
<rect width="37" height="37" fill="#D9D9D9"/>
</mask>
<g mask="url(#mask0_14_173)">
<path d="M26.155 27.75L20.9934 22.5883L22.6417 20.94L27.75 26.0483V22.9619C27.75 22.6343 27.8608 22.3597 28.0826 22.1381C28.3043 21.9165 28.579 21.8057 28.9067 21.8057C29.2345 21.8057 29.509 21.9165 29.7304 22.1381C29.9518 22.3597 30.0624 22.6343 30.0624 22.9619V28.669C30.0624 29.0638 29.9289 29.3948 29.6618 29.6618C29.3947 29.9289 29.0638 30.0625 28.669 30.0625H22.9174C22.5898 30.0625 22.3152 29.9516 22.0936 29.7299C21.872 29.5082 21.7612 29.2334 21.7612 28.9057C21.7612 28.578 21.872 28.3034 22.0936 28.082C22.3152 27.8607 22.5898 27.75 22.9174 27.75H26.155ZM27.75 10.8746L8.90608 29.7186C8.69263 29.932 8.42433 30.0412 8.10117 30.0462C7.77801 30.0511 7.50477 29.9419 7.28143 29.7186C7.0581 29.4952 6.94643 29.2244 6.94643 28.9062C6.94643 28.588 7.0581 28.3172 7.28143 28.0939L26.1253 9.25H22.9174C22.5898 9.25 22.3152 9.13914 22.0936 8.91742C21.872 8.69573 21.7612 8.42101 21.7612 8.09325C21.7612 7.76552 21.872 7.49097 22.0936 7.26961C22.3152 7.04823 22.5898 6.93754 22.9174 6.93754H28.669C29.0638 6.93754 29.3947 7.07109 29.6618 7.33818C29.9289 7.60525 30.0624 7.93618 30.0624 8.33098V14.0381C30.0624 14.3657 29.9516 14.6403 29.7299 14.8619C29.5082 15.0835 29.2334 15.1943 28.9057 15.1943C28.5779 15.1943 28.3034 15.0835 28.082 14.8619C27.8607 14.6403 27.75 14.3657 27.75 14.0381V10.8746ZM14.3078 15.9177L7.25773 8.89129C7.04426 8.67782 6.94 8.40951 6.94496 8.08635C6.9499 7.76322 7.05811 7.49492 7.2696 7.28145C7.48106 7.068 7.74541 6.96128 8.06263 6.96128C8.37986 6.96128 8.6531 7.068 8.88238 7.28145L15.9177 14.3079L14.3078 15.9177Z" fill="#1C1B1F"/>
</g>
</svg>
