<svg width="37" height="37" viewBox="0 0 37 37" fill="none" xmlns="http://www.w3.org/2000/svg">
<mask id="mask0_14_161" style="mask-type:alpha" maskUnits="userSpaceOnUse" x="0" y="0" width="37" height="37">
<rect width="37" height="37" fill="#D9D9D9"/>
</mask>
<g mask="url(#mask0_14_161)">
<path d="M18.5 7.88624C18.1472 7.88624 17.8515 7.7669 17.6128 7.52823C17.3742 7.28958 17.2548 6.99386 17.2548 6.64108C17.2548 6.28827 17.3742 5.99253 17.6128 5.75388C17.8515 5.51521 18.1472 5.39587 18.5 5.39587C18.8528 5.39587 19.1485 5.51521 19.3872 5.75388C19.6258 5.99253 19.7452 6.28827 19.7452 6.64108C19.7452 6.99386 19.6258 7.28958 19.3872 7.52823C19.1485 7.7669 18.8528 7.88624 18.5 7.88624ZM24.4295 7.88624C24.0767 7.88624 23.7809 7.7669 23.5423 7.52823C23.3036 7.28958 23.1843 6.99386 23.1843 6.64108C23.1843 6.28827 23.3036 5.99253 23.5423 5.75388C23.7809 5.51521 24.0767 5.39587 24.4295 5.39587C24.7823 5.39587 25.078 5.51521 25.3167 5.75388C25.5553 5.99253 25.6746 6.28827 25.6746 6.64108C25.6746 6.99386 25.5553 7.28958 25.3167 7.52823C25.078 7.7669 24.7823 7.88624 24.4295 7.88624ZM30.3589 7.88624C30.0061 7.88624 29.7104 7.7669 29.4718 7.52823C29.2331 7.28958 29.1138 6.99386 29.1138 6.64108C29.1138 6.28827 29.2331 5.99253 29.4718 5.75388C29.7104 5.51521 30.0061 5.39587 30.3589 5.39587C30.7117 5.39587 31.0075 5.51521 31.2461 5.75388C31.4848 5.99253 31.6041 6.28827 31.6041 6.64108C31.6041 6.99386 31.4848 7.28958 31.2461 7.52823C31.0075 7.7669 30.7117 7.88624 30.3589 7.88624ZM30.3589 13.8157C30.0061 13.8157 29.7104 13.6964 29.4718 13.4577C29.2331 13.2191 29.1138 12.9233 29.1138 12.5705C29.1138 12.2177 29.2331 11.922 29.4718 11.6833C29.7104 11.4447 30.0061 11.3254 30.3589 11.3254C30.7117 11.3254 31.0075 11.4447 31.2461 11.6833C31.4848 11.922 31.6041 12.2177 31.6041 12.5705C31.6041 12.9233 31.4848 13.2191 31.2461 13.4577C31.0075 13.6964 30.7117 13.8157 30.3589 13.8157ZM30.3589 19.7452C30.0061 19.7452 29.7104 19.6258 29.4718 19.3872C29.2331 19.1485 29.1138 18.8528 29.1138 18.5C29.1138 18.1472 29.2331 17.8515 29.4718 17.6128C29.7104 17.3742 30.0061 17.2548 30.3589 17.2548C30.7117 17.2548 31.0075 17.3742 31.2461 17.6128C31.4848 17.8515 31.6041 18.1472 31.6041 18.5C31.6041 18.8528 31.4848 19.1485 31.2461 19.3872C31.0075 19.6258 30.7117 19.7452 30.3589 19.7452ZM30.3589 25.6746C30.0061 25.6746 29.7104 25.5553 29.4718 25.3167C29.2331 25.078 29.1138 24.7823 29.1138 24.4295C29.1138 24.0767 29.2331 23.7809 29.4718 23.5423C29.7104 23.3036 30.0061 23.1843 30.3589 23.1843C30.7117 23.1843 31.0075 23.3036 31.2461 23.5423C31.4848 23.7809 31.6041 24.0767 31.6041 24.4295C31.6041 24.7823 31.4848 25.078 31.2461 25.3167C31.0075 25.5553 30.7117 25.6746 30.3589 25.6746ZM18.5 31.6041C18.1472 31.6041 17.8515 31.4848 17.6128 31.2461C17.3742 31.0075 17.2548 30.7117 17.2548 30.3589C17.2548 30.0061 17.3742 29.7104 17.6128 29.4718C17.8515 29.2331 18.1472 29.1138 18.5 29.1138C18.8528 29.1138 19.1485 29.2331 19.3872 29.4718C19.6258 29.7104 19.7452 30.0061 19.7452 30.3589C19.7452 30.7117 19.6258 31.0075 19.3872 31.2461C19.1485 31.4848 18.8528 31.6041 18.5 31.6041ZM24.4295 31.6041C24.0767 31.6041 23.7809 31.4848 23.5423 31.2461C23.3036 31.0075 23.1843 30.7117 23.1843 30.3589C23.1843 30.0061 23.3036 29.7104 23.5423 29.4718C23.7809 29.2331 24.0767 29.1138 24.4295 29.1138C24.7823 29.1138 25.078 29.2331 25.3167 29.4718C25.5553 29.7104 25.6746 30.0061 25.6746 30.3589C25.6746 30.7117 25.5553 31.0075 25.3167 31.2461C25.078 31.4848 24.7823 31.6041 24.4295 31.6041ZM30.3589 31.6041C30.0061 31.6041 29.7104 31.4848 29.4718 31.2461C29.2331 31.0075 29.1138 30.7117 29.1138 30.3589C29.1138 30.0061 29.2331 29.7104 29.4718 29.4718C29.7104 29.2331 30.0061 29.1138 30.3589 29.1138C30.7117 29.1138 31.0075 29.2331 31.2461 29.4718C31.4848 29.7104 31.6041 30.0061 31.6041 30.3589C31.6041 30.7117 31.4848 31.0075 31.2461 31.2461C31.0075 31.4848 30.7117 31.6041 30.3589 31.6041ZM6.55212 31.6041C6.22452 31.6041 5.94991 31.4933 5.7283 31.2716C5.50668 31.0498 5.39587 30.7751 5.39587 30.4474C5.39587 30.1196 5.50668 29.8451 5.7283 29.6237C5.94991 29.4023 6.22452 29.2917 6.55212 29.2917H8.47921V7.70833H6.55212C6.22452 7.70833 5.94991 7.59747 5.7283 7.37576C5.50668 7.15406 5.39587 6.87934 5.39587 6.55158C5.39587 6.22385 5.50668 5.9493 5.7283 5.72795C5.94991 5.50656 6.22452 5.39587 6.55212 5.39587H12.7188C13.0464 5.39587 13.321 5.50673 13.5426 5.72845C13.7642 5.95016 13.875 6.22489 13.875 6.55262C13.875 6.88038 13.7642 7.15494 13.5426 7.3763C13.321 7.59765 13.0464 7.70833 12.7188 7.70833H10.7917V29.2917H12.7188C13.0464 29.2917 13.321 29.4025 13.5426 29.6242C13.7642 29.8459 13.875 30.1207 13.875 30.4484C13.875 30.7762 13.7642 31.0507 13.5426 31.2721C13.321 31.4934 13.0464 31.6041 12.7188 31.6041H6.55212Z" fill="#1C1B1F"/>
</g>
</svg>
